<svg width="128" height="128" xmlns="http://www.w3.org/2000/svg">
    <path
        d="M83,30a9.83,9.83,0,1,1,9.83-9.83A9.86,9.86,0,0,1,83,30ZM102,15.3a19.56,19.56,0,0,0-37.91,0H4.41v9.82H64.07a19.56,19.56,0,0,0,37.91,0h20.35V15.3ZM83,118.47a9.83,9.83,0,1,1,9.83-9.83A9.84,9.84,0,0,1,83,118.47M83,89a19.62,19.62,0,0,0-19,14.74H4.41v9.83H64.07a19.56,19.56,0,0,0,37.91,0h20.35v-9.83H102A19.65,19.65,0,0,0,83,89M43.72,74.25a9.83,9.83,0,1,1,9.83-9.82,9.82,9.82,0,0,1-9.83,9.82m0-29.48a19.65,19.65,0,0,0-19,14.74H4.41v9.83H24.76a19.56,19.56,0,0,0,37.91,0h59.66V59.51H62.67a19.62,19.62,0,0,0-19-14.74"/>
</svg>
