<svg width="128" height="128" xmlns="http://www.w3.org/2000/svg">
    <path
        d="M63.16,82.69A18.29,18.29,0,1,1,81.45,64.4,18.31,18.31,0,0,1,63.16,82.69m0-45.72A27.43,27.43,0,1,0,90.59,64.4,27.43,27.43,0,0,0,63.16,37"/>
    <path
        d="M89.05,96.34a42.11,42.11,0,0,1-5.79,3.93c-.17.09-.34.21-.52.3a39.3,39.3,0,0,1-4.86,2.2L75.09,113.2l-1.33,4.94a1.83,1.83,0,0,1-.25.06l-1.25.23c-.5.09-1,.16-1.52.23a51.92,51.92,0,0,1-7.58.53c-.74,0-1.49,0-2.24,0l-1.23-.07q-2.07-.14-4.11-.42c-.5-.07-1-.14-1.52-.23l-1.25-.23-.25-.06-1.32-4.93-2.8-10.44a40.22,40.22,0,0,1-6.83-3.39,41,41,0,0,1-4.33-3L26.85,99.13l-4.93,1.33-.17-.2-.83-1c-.33-.4-.64-.81-1-1.22-.86-1.08-1.67-2.19-2.42-3.34-.23-.34-.45-.68-.67-1q-1.2-1.89-2.24-3.88c-.19-.36-.37-.73-.56-1.1s-.44-.88-.64-1.33c-.37-.8-.72-1.61-1-2.43-.2-.48-.39-1-.57-1.43l-.43-1.21-.07-.24,3.6-3.6,7.65-7.66A43.11,43.11,0,0,1,22,64.94c0-.19,0-.36,0-.54s0-.35,0-.53a43.12,43.12,0,0,1,.53-5.9l-7.65-7.66-3.6-3.6c.16-.49.33-1,.5-1.45s.37-1,.57-1.44A53.73,53.73,0,0,1,20,30.71c.32-.4.63-.81,1-1.21s.54-.64.83-1l.17-.19,4.93,1.32,10.43,2.79a41.45,41.45,0,0,1,4.33-3l.58-.35a40.08,40.08,0,0,1,6.25-3l2.8-10.43,1.32-4.94.25-.06,1.25-.23c.5-.09,1-.16,1.53-.23.87-.12,1.74-.23,2.62-.31s1.81-.14,2.72-.17c.74,0,1.49-.06,2.23-.06s1.49,0,2.24.06,1.81.09,2.71.17,1.75.19,2.62.32c.51.06,1,.13,1.54.22l1.24.23.25.05,1.33,4.95L77.88,26a42.66,42.66,0,0,1,4.86,2.2c.18.1.35.22.52.31a41.51,41.51,0,0,1,5.79,3.93l10.42-2.79,4.93-1.32.18.19.82,1c.33.4.64.81,1,1.21.55.69,1.08,1.4,1.59,2.12.28.4.56.81.83,1.22l.67,1a49.75,49.75,0,0,1,2.8,5c.61,1.23,1.17,2.49,1.68,3.76.2.47.39,1,.58,1.43l.42,1.2a2.33,2.33,0,0,0,.07.25l-3.59,3.6L103.75,58a43.54,43.54,0,0,1,.5,5.27c0,.39,0,.78,0,1.17s0,.78,0,1.17a44.15,44.15,0,0,1-.5,5.26l7.66,7.66,3.59,3.6-.07.24-.42,1.2c-.19.49-.38,1-.58,1.44-.51,1.28-1.07,2.53-1.68,3.76-.51,1-1.06,2.06-1.63,3.07-.38.65-.77,1.28-1.17,1.92l-.66,1c-.76,1.15-1.57,2.27-2.43,3.35q-.48.61-1,1.2c-.27.33-.54.65-.82,1l-.18.19-4.93-1.32L89,96.34Zm-43.59,19.9-1.13-.38-.47-.18-.48-.18c.7.27,1.41.51,2.12.75ZM28.4,106.76l-.38-.32c-.31-.26-.6-.53-.91-.8l0,0c.57.5,1.14,1,1.73,1.46l-.42-.32Zm89.11-35.1,0,0v0h0l-4.17-4.17c.06-1,.16-2,.16-3s-.1-2-.16-3.05l4.17-4.17,0,0,0,0,7.82-7.81a63.62,63.62,0,0,0-2.63-8.2,63.68,63.68,0,0,0-4.12-8.72,63.65,63.65,0,0,0-5.49-7.92,63.5,63.5,0,0,0-5.78-6.38L96.63,21h-.07l-5.63,1.51a48.81,48.81,0,0,0-5.35-3l-1.52-5.67h0V13.7h0L81.18,3A62.07,62.07,0,0,0,72.77,1.2,63.14,63.14,0,0,0,63.16.4a63.33,63.33,0,0,0-9.6.8A63,63,0,0,0,45.14,3L42.28,13.69h0v.06h0l-1.52,5.67a48.66,48.66,0,0,0-5.35,3.06L29.76,21h-.07L19,18.1a65.08,65.08,0,0,0-5.78,6.38A63.49,63.49,0,0,0,7.74,32.4a63.42,63.42,0,0,0-4.12,8.72A63.62,63.62,0,0,0,1,49.32l7.82,7.81h0l0,0v0h0L13,61.36c-.06,1-.16,2-.16,3s.1,2,.16,3L8.86,71.61h0l0,0,0,0L1,79.49a63.37,63.37,0,0,0,2.63,8.19A63.36,63.36,0,0,0,7.73,96.4a63.71,63.71,0,0,0,5.5,7.92A64,64,0,0,0,19,110.7l10.67-2.87h.08l5.62-1.51a50.4,50.4,0,0,0,5.36,3L42.26,115v.07h0l2.87,10.68a63.15,63.15,0,0,0,8.41,1.82,63.12,63.12,0,0,0,9.6.8,63.35,63.35,0,0,0,9.61-.8,61.88,61.88,0,0,0,8.42-1.82L84,115.1V115l1.51-5.67a51.09,51.09,0,0,0,5.35-3.06l5.64,1.51h.07l10.68,2.87a65.2,65.2,0,0,0,5.78-6.38,64.32,64.32,0,0,0,5.5-7.92,63.36,63.36,0,0,0,4.11-8.72,63.37,63.37,0,0,0,2.63-8.19l-7.82-7.82h0Zm0,0"/>
</svg>
